<svg id="Camada_1" data-name="Camada 1" xmlns="http://www.w3.org/2000/svg" viewBox="0 0 162.99 59.94"><defs><style>.cls-1{font-size:31.57px;fill:#5a5a5a;font-family:Cabin-MediumItalic, Cabin;font-weight:500;font-style:italic;}.cls-2{letter-spacing:-0.01em;}.cls-3{fill:#554a99;}.cls-4{fill:#fff;}</style></defs><title>logo_guardian</title><text class="cls-1" transform="translate(43.65 39.79)">ua<tspan class="cls-2" x="33.86" y="0">r</tspan><tspan x="43.75" y="0">dian</tspan></text><path class="cls-3" d="M27.35,50.58a21.43,21.43,0,0,1-10.19-8.21A25,25,0,0,1,12.68,27.9V15.47L28.47,9.55l15.78,5.73h0c2.63-.46,4.81-2.09,4.31-2.77a5.42,5.42,0,0,0-2.47-1.91L30.31,4.68a5.29,5.29,0,0,0-3.68,0L10.84,10.6a5.4,5.4,0,0,0-2.46,1.91,4.9,4.9,0,0,0-1,3V27.9a30.76,30.76,0,0,0,5.26,17.2c3.51,5.32,14.67,11.1,14.93,11.15S27.82,51.11,27.35,50.58Z"/><path class="cls-3" d="M39.71,32.44a11.95,11.95,0,1,1,.14-3.17H35.92C35.39,32.45,38.34,32.55,39.71,32.44Z"/><circle class="cls-4" cx="27.57" cy="30.3" r="7.01"/><path class="cls-3" d="M31.91,30.18a4.11,4.11,0,0,1-8.09,1.36A4.07,4.07,0,0,1,24,28.92a1.69,1.69,0,1,0,2.14-2.15,4.11,4.11,0,0,1,5.73,3.41Z"/></svg>